# xmcd
#
# Track frame offsets:
# 150
# 21191
# 43767
# 66688
# 87247
# 107738
# 131065
# 151323
# 170682
# 198186
#
# Disc length: 2943 seconds
#
#
# Revision: 0
# Processed by: cddbd v1.5.2PL0 Copyright (c) Steve Scherf et al.
# Submitted via: FreeRIP 2.60 
#
DISCID=8b0b7d0a
DTITLE=Marti Pellow - Moonlight Over Memphis
DYEAR=2006
DGENRE=Soul
TTITLE0=Still Standing
TTITLE1=Can't Stop Loving You
TTITLE2=It's All About
TTITLE3=Our Love
TTITLE4=Mend This Heart Of Mine - And I Feel
TTITLE5=Let The Sun Walk You Home
TTITLE6=How Much Love (Hang On)
TTITLE7=I Don't Know Why
TTITLE8=Come Back Home
TTITLE9=Searching For You
EXTD=Produced by Willie Mitchell\n(c) Demon Music Group
EXTT0=
EXTT1=
EXTT2=
EXTT3=
EXTT4=
EXTT5=
EXTT6=
EXTT7=
EXTT8=
EXTT9=
PLAYORDER=
